<svg width="1200" height="630" viewBox="0 0 1200 630" fill="none" xmlns="http://www.w3.org/2000/svg">
  <!-- Background -->
  <rect width="1200" height="630" fill="#FAF7F2"/>

  <!-- Subtle texture -->
  <defs>
    <pattern id="grain" width="100" height="100" patternUnits="userSpaceOnUse">
      <circle cx="10" cy="10" r="0.5" fill="#3B2F2A" opacity="0.03"/>
      <circle cx="30" cy="45" r="0.4" fill="#3B2F2A" opacity="0.02"/>
      <circle cx="60" cy="20" r="0.5" fill="#3B2F2A" opacity="0.03"/>
      <circle cx="80" cy="60" r="0.3" fill="#3B2F2A" opacity="0.02"/>
      <circle cx="45" cy="80" r="0.4" fill="#3B2F2A" opacity="0.03"/>
    </pattern>
  </defs>
  <rect width="1200" height="630" fill="url(#grain)"/>

  <!-- Briefcase icon - right side -->
  <g transform="translate(880, 180)">
    <!-- Icon background circle -->
    <rect width="200" height="200" rx="24" fill="#2D4A3E"/>

    <!-- Briefcase body -->
    <rect x="25" y="85" width="150" height="90" rx="12" fill="#FAF7F2"/>

    <!-- Handle -->
    <path d="M65 85V70C65 58 75 50 88 50H112C125 50 135 58 135 70V85" stroke="#FAF7F2" stroke-width="14" stroke-linecap="round" fill="none"/>

    <!-- Center clasp -->
    <rect x="85" y="105" width="30" height="50" rx="6" fill="#2D4A3E"/>

    <!-- Clasp line -->
    <line x1="85" y1="130" x2="115" y2="130" stroke="#FAF7F2" stroke-width="8" stroke-linecap="round"/>
  </g>

  <!-- Accent line top -->
  <rect x="100" y="100" width="60" height="4" fill="#2D4A3E"/>

  <!-- Main headline -->
  <text x="100" y="220" font-family="Georgia, 'Times New Roman', serif" font-size="96" font-weight="400" fill="#3B2F2A" font-style="italic">House Call</text>

  <!-- Subheadline -->
  <text x="100" y="300" font-family="Georgia, 'Times New Roman', serif" font-size="36" fill="#5C4B44">AI systems for your business.</text>
  <text x="100" y="350" font-family="Georgia, 'Times New Roman', serif" font-size="36" fill="#5C4B44">Built in a day.</text>

  <!-- Price anchor -->
  <text x="100" y="440" font-family="system-ui, -apple-system, sans-serif" font-size="24" fill="#2D4A3E" font-weight="500">Starting at $1,000</text>

  <!-- Bottom accent line -->
  <rect x="100" y="530" width="1000" height="1" fill="#3B2F2A" opacity="0.1"/>

  <!-- SR Studio mark -->
  <text x="100" y="570" font-family="system-ui, -apple-system, sans-serif" font-size="16" fill="#7A6D66">An SR Studio company</text>

</svg>